# AST/ASF file generated using VICON BodyLanguage
# -----------------------------------------------
:version 1.10
:name VICON
:units
  mass 1.0
  length 0.45
  angle deg
:documentation
   .ast/.asf automatically generated from VICON data using
   VICON BodyBuilder and BodyLanguage model FoxedUp or BRILLIANT.MOD
:root
   order TX TY TZ RX RY RZ
   axis XYZ
   position 0 0 0  
   orientation 0 0 0 
:bonedata
  begin
     id 1 
     name lhipjoint
     direction 0.610259 -0.730986 0.305356 
     length 2.50941 
     axis 0 0 0  XYZ
  end
  begin
     id 2 
     name lfemur
     direction 0.34202 -0.939693 0  
     length 7.48822  
     axis 0 0 20  XYZ
    dof rx ry rz
    limits (-160.0 20.0)
           (-70.0 70.0)
           (-60.0 70.0)
  end
  begin
     id 3 
     name ltibia
     direction 0.34202 -0.939693 0   
     length 7.60141   
     axis 0 0 20   XYZ
    dof rx
    limits (-10.0 170.0)
  end
  begin
     id 4 
     name lfoot
     direction 0.0673488 -0.185039 0.980421   
     length 2.04049   
     axis -90 7.62852e-016 20   XYZ
    dof rx rz
    limits (-45.0 90.0)
           (-70.0 20.0)
  end
  begin
     id 5 
     name ltoes
     direction 1.5356e-011 -4.21729e-011 1   
     length 1.02897   
     axis -90 7.62852e-016 20   XYZ
    dof rx
    limits (-90.0 20.0)
  end
  begin
     id 6 
     name rhipjoint
     direction -0.57612 -0.754205 0.315056   
     length 2.43216  
     axis 0 0 0  XYZ 
  end
  begin
     id 7 
     name rfemur
     direction -0.34202 -0.939693 0   
     length 7.42799   
     axis 0 0 -20   XYZ
    dof rx ry rz
    limits (-160.0 20.0)
           (-70.0 70.0)
           (-70.0 60.0)
  end
  begin
     id 8 
     name rtibia
     direction -0.34202 -0.939693 0   
     length 7.69484   
     axis 0 0 -20   XYZ
    dof rx
    limits (-10.0 170.0)
 end
 begin
     id 9 
     name rfoot
     direction -0.111837 -0.30727 0.945028   
     length 2.15769  
     axis -90 -7.62852e-016 -20   XYZ
    dof rx rz
    limits (-45.0 90.0)
           (-20.0 70.0)
  end
  begin
     id 10 
     name rtoes
     direction -1.53539e-011 -4.21878e-011 1   
     length 1.07391   
     axis -90 -7.62852e-016 -20   XYZ
    dof rx
    limits (-90.0 20.0)
  end
  begin
     id 11 
     name lowerback
     direction 0.00552624 0.990109 -0.140195   
     length 2.12403   
     axis 0 0 0   XYZ
    dof rx ry rz
    limits (-20.0 45.0)
           (-30.0 30.0)
           (-30.0 30.0)
  end
  begin
     id 12 
     name upperback
     direction 0.00361898 0.999976 -0.00584723   
     length 2.13232   
     axis 0 0 0   XYZ
    dof rx ry rz
    limits (-20.0 45.0)
           (-30.0 30.0)
           (-30.0 30.0)
  end
  begin
     id 13 
     name thorax
     direction -0.000331275 0.998253 0.0590847   
     length 2.17688   
     axis 0 0 0   XYZ
    dof rx ry rz
    limits (-20.0 45.0)
           (-30.0 30.0)
           (-30.0 30.0)
  end
  begin
     id 14 
     name lowerneck
     direction -0.0561561 0.979832 0.19177   
     length 1.64159   
     axis 0 0 0   XYZ
    dof rx ry rz
    limits (-20.0 45.0)
           (-30.0 30.0)
           (-30.0 30.0)
  end
  begin
     id 15 
     name upperneck
     direction 0.0827153 0.979385 -0.184293   
     length 1.68939   
     axis 0 0 0   XYZ
    dof rx ry rz
    limits (-20.0 45.0)
           (-30.0 30.0)
           (-30.0 30.0)
  end
  begin
     id 16
     name head
     direction 0.0278583 0.995936 -0.0856488  
     length 1.70207  
     axis 0 0 0   XYZ
    dof rx ry rz
    limits (-20.0 45.0)
           (-30.0 30.0)
           (-30.0 30.0)
  end
  begin
     id 17 
     name lclavicle
     direction 0.950993 0.301131 -0.0702275  
     length 3.41652  
     axis 0 0 0   XYZ
    dof ry rz
    limits (-20.0 10.0)
           (0.0 20.0)
  end
  begin
     id 18 
     name lhumerus
     direction 1 -4.48981e-011 -3.9662e-029   
     length 5.32955   
     axis 180 -30 -90   XYZ
    dof rx ry rz
    limits (-60.0 90.0)
           (-90.0 90.0)
           (-90.0 90.0)
  end
  begin
     id 19
     name lradius
     direction 1 -4.48925e-011 -9.0549e-027   
     length 3.69232   
     axis 180 -30 -90   XYZ
    dof rx
    limits (-10.0 170.0)
  end
  begin
     id 20
     name lwrist
     direction 1 -4.49007e-011 -1.49005e-026   
     length 1.84616   
     axis 9.0955e-015 90 90   XYZ
    dof ry
    limits (-180.0 0.0)
 end
  begin
     id 21 
     name lhand
     direction 1 -4.49016e-011 -2.98023e-026   
     length 0.536598   
     axis 1.90115e-014 90 90   XYZ
    dof rx rz
    limits (-90.0 90.0)
           (-45.0 45.0)
  end
  begin
     id 22 
     name lfingers
     direction 1 -4.48924e-011 -5.9578e-026   
     length 0.432619   
     axis 3.80223e-014 90 90   XYZ
    dof rx
    limits (0.0 90.0)
  end
  begin
     id 23
     name lthumb
     direction 0.707107 -6.34947e-011 0.707107   
     length 0.621157   
     axis -90 45 -3.84942e-014   XYZ
    dof rx rz
    limits (-45.0 45.0)
           (-45.0 45.0)
  end
  begin
     id 24 
     name rclavicle
     direction -0.955495 0.276497 -0.102848   
     length 3.36357  
     axis 0 0 0   XYZ 
    dof ry rz
    limits (-10.0 20.0)
           (-20.0 0.0)
  end
  begin
     id 25 
     name rhumerus
     direction -1 -4.48961e-011 3.30983e-027  
     length 5.23431   
     axis 180 30 90   XYZ
    dof rx ry rz
    limits (-90.0 60.0)
           (-90.0 90.0)
           (-90.0 90.0)
  end
  begin
     id 26 
     name rradius
     direction -1 -4.48965e-011 -6.63263e-027   
     length 3.55301   
     axis 180 30 90   XYZ
    dof rx
    limits (-10.0 170.0)
  end
  begin
     id 27 
     name rwrist
     direction -1 -4.48942e-011 -1.48958e-026   
     length 1.77651   
     axis 9.0955e-015 -90 -90   XYZ
    dof ry
    limits (-180.0 0.0)
  end
  begin
     id 28
     name rhand
     direction -1 -4.48977e-011 -2.97966e-026   
     length 0.772522   
     axis 1.90115e-014 -90 -90   XYZ
    dof rx rz
    limits (-90.0 90.0)
           (-45.0 45.0)
  end
  begin
     id 29
     name rfingers
     direction -1 -4.49135e-011 -5.96389e-026   
     length 0.622827   
     axis 3.80223e-014 -90 -90   XYZ
    dof rx
    limits (0.0 90.0)
  end
  begin
     id 30
     name rthumb
     direction -0.707107 -6.34969e-011 0.707107   
     length 0.894259   
     axis -90 -45 3.84942e-014   XYZ
    dof rx rz
    limits (-45.0 45.0)
           (-45.0 45.0)
  end
:hierarchy
  begin
    root lhipjoint rhipjoint lowerback
    lhipjoint lfemur
    lfemur ltibia
    ltibia lfoot
    lfoot ltoes
    rhipjoint rfemur
    rfemur rtibia
    rtibia rfoot
    rfoot rtoes
    lowerback upperback
    upperback thorax
    thorax lowerneck lclavicle rclavicle
    lowerneck upperneck
    upperneck head
    lclavicle lhumerus
    lhumerus lradius
    lradius lwrist
    lwrist lhand lthumb
    lhand lfingers
    rclavicle rhumerus
    rhumerus rradius
    rradius rwrist
    rwrist rhand rthumb
    rhand rfingers
  end

#!OML:ASF F:\VICON\USERDATA\INSTALL\rory3\rory3.ASF
:FULLY-SPECIFIED
:DEGREES
652
root -11.6338 17.7432 5.25217 -177.209 52.4893 182.007
lowerback 9.96278 2.87565 0.509763
upperback 0.485303 3.97233 0.899182
thorax -5.10425 1.97552 0.0851724
lowerneck -14.4068 -7.19949 -10.4515
upperneck 32.0686 -8.70495 7.87121
head 14.2498 -3.50263 3.66566
rclavicle 9.49197e-015 -1.61016e-014
rhumerus -34.7756 -5.17419 -83.3117
rradius 35.2522
rwrist 2.66434
rhand -18.1008 10.0744
rfingers 7.12502
rthumb 8.17306 -19.7475
lclavicle 9.49197e-015 -1.61016e-014
lhumerus -37.5741 4.83167 79.8863
lradius 32.7624
lwrist -7.12266
lhand -18.8083 22.8223
lfingers 7.12502
lthumb 7.4902 52.6696
rfemur 11.0631 5.19023 26.9518
rtibia 21.0753
rfoot -7.11718 20.9947
rtoes 16.8892
lfemur -23.6361 -8.71501 -18.5247
ltibia 24.1999
lfoot -4.56856 -7.60958
ltoes -1.41305
653
root -11.5401 17.7483 5.15714 -177.549 52.7456 181.596
lowerback 9.96732 2.79856 0.28643
upperback 0.346782 3.82799 0.673931
thorax -5.25044 1.9033 -0.00814419
lowerneck -14.2553 -7.09188 -10.2574
upperneck 32.1531 -8.63119 7.94364
head 14.2359 -3.43431 3.68352
rclavicle -7.44449e-014 1.39149e-015
rhumerus -35.1495 -5.85026 -83.2444
rradius 34.5459
rwrist 3.16185
rhand -18.281 10.197
rfingers 7.12502
rthumb 7.99918 -19.6317
lclavicle -7.44449e-014 1.39149e-015
lhumerus -37.8773 5.00139 79.4607
lradius 32.6644
lwrist -7.07843
lhand -18.8085 23.0659
lfingers 7.12502
lthumb 7.49003 52.9133
rfemur 10.689 5.18234 26.4689
rtibia 22.496
rfoot -5.78214 21.5747
rtoes 17.5286
lfemur -23.2536 -8.55219 -18.9424
ltibia 24.3664
lfoot -4.07358 -7.88768
ltoes 0.375959
654
root -11.4469 17.7534 5.05982 -177.834 53.0199 181.301
lowerback 9.8759 2.76286 0.00909136
upperback 0.330511 3.74321 0.604482
thorax -5.22908 1.86694 0.0909066
lowerneck -14.1967 -7.0199 -10.137
upperneck 32.1194 -8.55372 7.89784
head 14.1872 -3.3954 3.6571
rclavicle -3.30728e-014 3.97569e-015
rhumerus -35.4648 -6.48727 -82.942
rradius 34.0002
rwrist 3.59604
rhand -18.0918 10.3247
rfingers 7.12502
rthumb 8.1817 -19.4969
lclavicle -3.30728e-014 3.97569e-015
lhumerus -38.0433 5.10882 79.3224
lradius 32.5529
lwrist -6.8932
lhand -19.236 23.1468
lfingers 7.12502
lthumb 7.07735 53.0085
rfemur 10.2526 5.04085 25.9997
rtibia 24.0936
rfoot -4.4541 22.0896
rtoes 17.745
lfemur -22.8314 -8.26928 -19.285
ltibia 24.559
lfoot -3.88836 -7.92053
ltoes 1.11083
655
root -11.3526 17.756 4.95757 -177.981 53.3872 181.32
lowerback 9.83563 2.7723 -0.0388324
upperback 0.374297 3.74961 0.586715
thorax -5.16251 1.87169 0.101764
lowerneck -14.2187 -7.02388 -10.2525
upperneck 32.1742 -8.59917 8.11451
head 14.2421 -3.39896 3.76124
rclavicle 9.6336e-014 9.54166e-015
rhumerus -35.8534 -7.10024 -82.5746
rradius 33.5754
rwrist 3.87762
rhand -17.853 10.1483
rfingers 7.12502
rthumb 8.41224 -19.6642
lclavicle 9.6336e-014 9.54166e-015
lhumerus -38.1262 5.33611 79.1701
lradius 32.3952
lwrist -6.97017
lhand -19.351 23.1804
lfingers 7.12502
lthumb 6.96632 53.0458
rfemur 9.83532 4.78704 25.6586
rtibia 25.8184
rfoot -3.12721 22.5731
rtoes 17.6767
lfemur -22.2619 -7.79765 -19.4623
ltibia 24.7686
lfoot -4.1202 -7.81794
ltoes 0.0317378
656
root -11.2639 17.7578 4.86035 -178.051 53.7021 181.463
lowerback 9.91536 2.77755 -0.0217233
upperback 0.421976 3.76126 0.60986
thorax -5.15777 1.87793 0.111855
lowerneck -14.3216 -7.06018 -10.4709
upperneck 32.271 -8.69637 8.44912
head 14.3552 -3.4193 3.92428
rclavicle 8.15638e-014 6.16232e-015
rhumerus -36.1647 -7.75008 -82.1392
rradius 33.1226
rwrist 4.0494
rhand -17.5648 9.89211
rfingers 7.12502
rthumb 8.6903 -19.909
lclavicle 8.15638e-014 6.16232e-015
lhumerus -38.1826 5.69041 79.0315
lradius 32.2652
lwrist -7.0445
lhand -19.0019 23.2514
lfingers 7.12502
lthumb 7.30327 53.1053
rfemur 9.28254 4.34524 25.3352
rtibia 27.6455
rfoot -1.2342 23.0331
rtoes 18.404
lfemur -21.6852 -7.24127 -19.5392
ltibia 24.9678
lfoot -4.31646 -8.24994
ltoes 0.0705559
657
root -11.1794 17.7632 4.76493 -178.178 53.8993 181.504
lowerback 9.97092 2.73737 0.0180146
upperback 0.489643 3.71348 0.601067
thorax -5.11453 1.85432 0.0865399
lowerneck -14.386 -7.05688 -10.5137
upperneck 32.2382 -8.71652 8.54808
head 14.3659 -3.42273 3.96639
rclavicle 3.77318e-014 6.95746e-016
rhumerus -36.355 -8.43469 -81.7215
rradius 32.599
rwrist 4.10897
rhand -18.0225 8.90758
rfingers 7.12502
rthumb 8.24859 -20.9114
lclavicle 3.77318e-014 6.95746e-016
lhumerus -38.169 5.89224 79.0022
lradius 32.1062
lwrist -6.77777
lhand -19.0859 23.2972
lfingers 7.12502
lthumb 7.22224 53.1539
rfemur 8.58801 3.85975 24.9349
rtibia 29.5616
rfoot 1.01599 23.3757
rtoes 19.1865
lfemur -21.141 -6.83374 -19.6435
ltibia 25.1531
lfoot -4.337 -9.05753
ltoes 1.68623
